<svg xmlns="http://www.w3.org/2000/svg" xmlns:xlink="http://www.w3.org/1999/xlink" contentStyleType="text/css" data-diagram-type="DESCRIPTION" height="633px" preserveAspectRatio="none" style="width:2523px;height:633px;background:#FFFFFF;" version="1.1" viewBox="0 0 2523 633" width="2523px" zoomAndPan="magnify"><defs/><g><!--cluster Presentation Layer--><g id="cluster_Presentation Layer"><path d="M159.5,6 L308.9385,6 A5.25,5.25 0 0 1 312.4385,9.5 L319.4385,28.2969 L2512.5,28.2969 A3.5,3.5 0 0 1 2516,31.7969 L2516,89.8 A3.5,3.5 0 0 1 2512.5,93.3 L159.5,93.3 A3.5,3.5 0 0 1 156,89.8 L156,9.5 A3.5,3.5 0 0 1 159.5,6 " fill="none" style="stroke:#696969;stroke-width:1;"/><line style="stroke:#696969;stroke-width:1;" x1="156" x2="319.4385" y1="28.2969" y2="28.2969"/><text fill="#000000" font-family="sans-serif" font-size="14" font-weight="bold" lengthAdjust="spacing" textLength="150.4385" x="160" y="20.9951">Presentation Layer</text></g><!--cluster Business Logic Layer--><g id="cluster_Business Logic Layer"><path d="M192.5,224.3 L356.6973,224.3 A5.25,5.25 0 0 1 360.1973,227.8 L367.1973,246.5969 L2180.5,246.5969 A3.5,3.5 0 0 1 2184,250.0969 L2184,404.39 A3.5,3.5 0 0 1 2180.5,407.89 L192.5,407.89 A3.5,3.5 0 0 1 189,404.39 L189,227.8 A3.5,3.5 0 0 1 192.5,224.3 " fill="none" style="stroke:#696969;stroke-width:1;"/><line style="stroke:#696969;stroke-width:1;" x1="189" x2="367.1973" y1="246.5969" y2="246.5969"/><text fill="#000000" font-family="sans-serif" font-size="14" font-weight="bold" lengthAdjust="spacing" textLength="165.1973" x="193" y="239.2951">Business Logic Layer</text></g><!--cluster Resource Layer--><g id="cluster_Resource Layer"><path d="M9.5,538.89 L130.1592,538.89 A5.25,5.25 0 0 1 133.6592,542.39 L140.6592,561.1869 L2481.5,561.1869 A3.5,3.5 0 0 1 2485,564.6869 L2485,622.69 A3.5,3.5 0 0 1 2481.5,626.19 L9.5,626.19 A3.5,3.5 0 0 1 6,622.69 L6,542.39 A3.5,3.5 0 0 1 9.5,538.89 " fill="none" style="stroke:#696969;stroke-width:1;"/><line style="stroke:#696969;stroke-width:1;" x1="6" x2="140.6592" y1="561.1869" y2="561.1869"/><text fill="#000000" font-family="sans-serif" font-size="14" font-weight="bold" lengthAdjust="spacing" textLength="121.6592" x="10" y="553.8851">Resource Layer</text></g><!--entity CardController--><g id="elem_CardController"><rect fill="#F1F1F1" height="36.2969" rx="3.5" ry="3.5" style="stroke:#181818;stroke-width:0.5;" width="122.1699" x="824.92" y="41"/><text fill="#000000" font-family="sans-serif" font-size="14" lengthAdjust="spacing" textLength="102.1699" x="834.92" y="63.9951">CardController</text></g><!--entity DeckController--><g id="elem_DeckController"><rect fill="#F1F1F1" height="36.2969" rx="3.5" ry="3.5" style="stroke:#181818;stroke-width:0.5;" width="124.3711" x="171.81" y="41"/><text fill="#000000" font-family="sans-serif" font-size="14" lengthAdjust="spacing" textLength="104.3711" x="181.81" y="63.9951">DeckController</text></g><!--entity AuthController--><g id="elem_AuthController"><rect fill="#F1F1F1" height="36.2969" rx="3.5" ry="3.5" style="stroke:#181818;stroke-width:0.5;" width="121.9854" x="1962.01" y="41"/><text fill="#000000" font-family="sans-serif" font-size="14" lengthAdjust="spacing" textLength="101.9854" x="1972.01" y="63.9951">AuthController</text></g><!--entity FriendshipController--><g id="elem_FriendshipController"><rect fill="#F1F1F1" height="36.2969" rx="3.5" ry="3.5" style="stroke:#181818;stroke-width:0.5;" width="162.1875" x="1354.91" y="41"/><text fill="#000000" font-family="sans-serif" font-size="14" lengthAdjust="spacing" textLength="142.1875" x="1364.91" y="63.9951">FriendshipController</text></g><!--entity GameSessionController--><g id="elem_GameSessionController"><rect fill="#F1F1F1" height="36.2969" rx="3.5" ry="3.5" style="stroke:#181818;stroke-width:0.5;" width="184.2676" x="1742.87" y="41"/><text fill="#000000" font-family="sans-serif" font-size="14" lengthAdjust="spacing" textLength="164.2676" x="1752.87" y="63.9951">GameSessionController</text></g><!--entity UserController--><g id="elem_UserController"><rect fill="#F1F1F1" height="36.2969" rx="3.5" ry="3.5" style="stroke:#181818;stroke-width:0.5;" width="121.083" x="1198.46" y="41"/><text fill="#000000" font-family="sans-serif" font-size="14" lengthAdjust="spacing" textLength="101.083" x="1208.46" y="63.9951">UserController</text></g><!--entity PieceController--><g id="elem_PieceController"><rect fill="#F1F1F1" height="36.2969" rx="3.5" ry="3.5" style="stroke:#181818;stroke-width:0.5;" width="126.4287" x="489.79" y="41"/><text fill="#000000" font-family="sans-serif" font-size="14" lengthAdjust="spacing" textLength="106.4287" x="499.79" y="63.9951">PieceController</text></g><!--entity SquareController--><g id="elem_SquareController"><rect fill="#F1F1F1" height="36.2969" rx="3.5" ry="3.5" style="stroke:#181818;stroke-width:0.5;" width="138.7676" x="651.62" y="41"/><text fill="#000000" font-family="sans-serif" font-size="14" lengthAdjust="spacing" textLength="118.7676" x="661.62" y="63.9951">SquareController</text></g><!--entity AchievementController--><g id="elem_AchievementController"><rect fill="#F1F1F1" height="36.2969" rx="3.5" ry="3.5" style="stroke:#181818;stroke-width:0.5;" width="181.335" x="982.33" y="41"/><text fill="#000000" font-family="sans-serif" font-size="14" lengthAdjust="spacing" textLength="161.335" x="992.33" y="63.9951">AchievementController</text></g><!--entity FightController--><g id="elem_FightController"><rect fill="#F1F1F1" height="36.2969" rx="3.5" ry="3.5" style="stroke:#181818;stroke-width:0.5;" width="124.3643" x="330.82" y="41"/><text fill="#000000" font-family="sans-serif" font-size="14" lengthAdjust="spacing" textLength="104.3643" x="340.82" y="63.9951">FightController</text></g><!--entity ChatRoomController--><g id="elem_ChatRoomController"><rect fill="#F1F1F1" height="36.2969" rx="3.5" ry="3.5" style="stroke:#181818;stroke-width:0.5;" width="162.3857" x="2337.81" y="41"/><text fill="#000000" font-family="sans-serif" font-size="14" lengthAdjust="spacing" textLength="142.3857" x="2347.81" y="63.9951">ChatRoomController</text></g><!--entity ChatMessageController--><g id="elem_ChatMessageController"><rect fill="#F1F1F1" height="36.2969" rx="3.5" ry="3.5" style="stroke:#181818;stroke-width:0.5;" width="183.249" x="2119.38" y="41"/><text fill="#000000" font-family="sans-serif" font-size="14" lengthAdjust="spacing" textLength="163.249" x="2129.38" y="63.9951">ChatMessageController</text></g><!--entity InvitationController--><g id="elem_InvitationController"><rect fill="#F1F1F1" height="36.2969" rx="3.5" ry="3.5" style="stroke:#181818;stroke-width:0.5;" width="155.2354" x="1552.38" y="41"/><text fill="#000000" font-family="sans-serif" font-size="14" lengthAdjust="spacing" textLength="135.2354" x="1562.38" y="63.9951">InvitationController</text></g><!--entity CardService--><g id="elem_CardService"><rect fill="#F1F1F1" height="36.2969" rx="3.5" ry="3.5" style="stroke:#181818;stroke-width:0.5;" width="104.7383" x="788.63" y="259.3"/><text fill="#000000" font-family="sans-serif" font-size="14" lengthAdjust="spacing" textLength="84.7383" x="798.63" y="282.2951">CardService</text></g><!--entity FightService--><g id="elem_FightService"><rect fill="#F1F1F1" height="36.2969" rx="3.5" ry="3.5" style="stroke:#181818;stroke-width:0.5;" width="106.9326" x="346.53" y="259.3"/><text fill="#000000" font-family="sans-serif" font-size="14" lengthAdjust="spacing" textLength="86.9326" x="356.53" y="282.2951">FightService</text></g><!--entity DeckService--><g id="elem_DeckService"><rect fill="#F1F1F1" height="36.2969" rx="3.5" ry="3.5" style="stroke:#181818;stroke-width:0.5;" width="106.9395" x="204.53" y="259.3"/><text fill="#000000" font-family="sans-serif" font-size="14" lengthAdjust="spacing" textLength="86.9395" x="214.53" y="282.2951">DeckService</text></g><!--entity AuthService--><g id="elem_AuthService"><rect fill="#F1F1F1" height="36.2969" rx="3.5" ry="3.5" style="stroke:#181818;stroke-width:0.5;" width="104.5537" x="1883.72" y="355.6"/><text fill="#000000" font-family="sans-serif" font-size="14" lengthAdjust="spacing" textLength="84.5537" x="1893.72" y="378.5951">AuthService</text></g><!--entity FriendshipService--><g id="elem_FriendshipService"><rect fill="#F1F1F1" height="36.2969" rx="3.5" ry="3.5" style="stroke:#181818;stroke-width:0.5;" width="144.7559" x="1126.62" y="259.3"/><text fill="#000000" font-family="sans-serif" font-size="14" lengthAdjust="spacing" textLength="124.7559" x="1136.62" y="282.2951">FriendshipService</text></g><!--entity AchievementService--><g id="elem_AchievementService"><rect fill="#F1F1F1" height="36.2969" rx="3.5" ry="3.5" style="stroke:#181818;stroke-width:0.5;" width="163.9033" x="928.05" y="259.3"/><text fill="#000000" font-family="sans-serif" font-size="14" lengthAdjust="spacing" textLength="143.9033" x="938.05" y="282.2951">AchievementService</text></g><!--entity GameSessionService--><g id="elem_GameSessionService"><rect fill="#F1F1F1" height="36.2969" rx="3.5" ry="3.5" style="stroke:#181818;stroke-width:0.5;" width="166.8359" x="2001.58" y="259.3"/><text fill="#000000" font-family="sans-serif" font-size="14" lengthAdjust="spacing" textLength="146.8359" x="2011.58" y="282.2951">GameSessionService</text></g><!--entity UserService--><g id="elem_UserService"><rect fill="#F1F1F1" height="36.2969" rx="3.5" ry="3.5" style="stroke:#181818;stroke-width:0.5;" width="103.6514" x="1479.17" y="259.3"/><text fill="#000000" font-family="sans-serif" font-size="14" lengthAdjust="spacing" textLength="83.6514" x="1489.17" y="282.2951">UserService</text></g><!--entity PieceService--><g id="elem_PieceService"><rect fill="#F1F1F1" height="36.2969" rx="3.5" ry="3.5" style="stroke:#181818;stroke-width:0.5;" width="108.9971" x="488.5" y="259.3"/><text fill="#000000" font-family="sans-serif" font-size="14" lengthAdjust="spacing" textLength="88.9971" x="498.5" y="282.2951">PieceService</text></g><!--entity SquareService--><g id="elem_SquareService"><rect fill="#F1F1F1" height="36.2969" rx="3.5" ry="3.5" style="stroke:#181818;stroke-width:0.5;" width="121.3359" x="632.33" y="259.3"/><text fill="#000000" font-family="sans-serif" font-size="14" lengthAdjust="spacing" textLength="101.3359" x="642.33" y="282.2951">SquareService</text></g><!--entity ChatRoomService--><g id="elem_ChatRoomService"><rect fill="#F1F1F1" height="36.2969" rx="3.5" ry="3.5" style="stroke:#181818;stroke-width:0.5;" width="144.9541" x="2023.52" y="355.6"/><text fill="#000000" font-family="sans-serif" font-size="14" lengthAdjust="spacing" textLength="124.9541" x="2033.52" y="378.5951">ChatRoomService</text></g><!--entity ChatMessageService--><g id="elem_ChatMessageService"><rect fill="#F1F1F1" height="36.2969" rx="3.5" ry="3.5" style="stroke:#181818;stroke-width:0.5;" width="165.8174" x="1618.09" y="259.3"/><text fill="#000000" font-family="sans-serif" font-size="14" lengthAdjust="spacing" textLength="145.8174" x="1628.09" y="282.2951">ChatMessageService</text></g><!--entity InvitationService--><g id="elem_InvitationService"><rect fill="#F1F1F1" height="36.2969" rx="3.5" ry="3.5" style="stroke:#181818;stroke-width:0.5;" width="137.8037" x="1306.1" y="259.3"/><text fill="#000000" font-family="sans-serif" font-size="14" lengthAdjust="spacing" textLength="117.8037" x="1316.1" y="282.2951">InvitationService</text></g><!--entity AuthoritiesService--><g id="elem_AuthoritiesService"><rect fill="#F1F1F1" height="36.2969" rx="3.5" ry="3.5" style="stroke:#181818;stroke-width:0.5;" width="148.0508" x="1818.97" y="259.3"/><text fill="#000000" font-family="sans-serif" font-size="14" lengthAdjust="spacing" textLength="128.0508" x="1828.97" y="282.2951">AuthoritiesService</text></g><!--entity CardRepository--><g id="elem_CardRepository"><rect fill="#F1F1F1" height="36.2969" rx="3.5" ry="3.5" style="stroke:#181818;stroke-width:0.5;" width="128.0693" x="697.97" y="573.89"/><text fill="#000000" font-family="sans-serif" font-size="14" lengthAdjust="spacing" textLength="108.0693" x="707.97" y="596.8851">CardRepository</text></g><!--entity InvitationRepository--><g id="elem_InvitationRepository"><rect fill="#F1F1F1" height="36.2969" rx="3.5" ry="3.5" style="stroke:#181818;stroke-width:0.5;" width="161.1348" x="1287.43" y="573.89"/><text fill="#000000" font-family="sans-serif" font-size="14" lengthAdjust="spacing" textLength="141.1348" x="1297.43" y="596.8851">InvitationRepository</text></g><!--entity FightRepository--><g id="elem_FightRepository"><rect fill="#F1F1F1" height="36.2969" rx="3.5" ry="3.5" style="stroke:#181818;stroke-width:0.5;" width="130.2637" x="186.87" y="573.89"/><text fill="#000000" font-family="sans-serif" font-size="14" lengthAdjust="spacing" textLength="110.2637" x="196.87" y="596.8851">FightRepository</text></g><!--entity DeckRepository--><g id="elem_DeckRepository"><rect fill="#F1F1F1" height="36.2969" rx="3.5" ry="3.5" style="stroke:#181818;stroke-width:0.5;" width="130.2705" x="21.86" y="573.89"/><text fill="#000000" font-family="sans-serif" font-size="14" lengthAdjust="spacing" textLength="110.2705" x="31.86" y="596.8851">DeckRepository</text></g><!--entity FriendshipRepository--><g id="elem_FriendshipRepository"><rect fill="#F1F1F1" height="36.2969" rx="3.5" ry="3.5" style="stroke:#181818;stroke-width:0.5;" width="168.0869" x="1083.96" y="573.89"/><text fill="#000000" font-family="sans-serif" font-size="14" lengthAdjust="spacing" textLength="148.0869" x="1093.96" y="596.8851">FriendshipRepository</text></g><!--entity GameSessionRepository--><g id="elem_GameSessionRepository"><rect fill="#F1F1F1" height="36.2969" rx="3.5" ry="3.5" style="stroke:#181818;stroke-width:0.5;" width="190.167" x="2075.92" y="573.89"/><text fill="#000000" font-family="sans-serif" font-size="14" lengthAdjust="spacing" textLength="170.167" x="2085.92" y="596.8851">GameSessionRepository</text></g><!--entity PieceRepository--><g id="elem_PieceRepository"><rect fill="#F1F1F1" height="36.2969" rx="3.5" ry="3.5" style="stroke:#181818;stroke-width:0.5;" width="132.3281" x="351.84" y="573.89"/><text fill="#000000" font-family="sans-serif" font-size="14" lengthAdjust="spacing" textLength="112.3281" x="361.84" y="596.8851">PieceRepository</text></g><!--entity SquareRepository--><g id="elem_SquareRepository"><rect fill="#F1F1F1" height="36.2969" rx="3.5" ry="3.5" style="stroke:#181818;stroke-width:0.5;" width="144.667" x="518.67" y="573.89"/><text fill="#000000" font-family="sans-serif" font-size="14" lengthAdjust="spacing" textLength="124.667" x="528.67" y="596.8851">SquareRepository</text></g><!--entity AchievementRepository--><g id="elem_AchievementRepository"><rect fill="#F1F1F1" height="36.2969" rx="3.5" ry="3.5" style="stroke:#181818;stroke-width:0.5;" width="187.2344" x="861.38" y="573.89"/><text fill="#000000" font-family="sans-serif" font-size="14" lengthAdjust="spacing" textLength="167.2344" x="871.38" y="596.8851">AchievementRepository</text></g><!--entity UserRepository--><g id="elem_UserRepository"><rect fill="#F1F1F1" height="36.2969" rx="3.5" ry="3.5" style="stroke:#181818;stroke-width:0.5;" width="126.9824" x="1483.51" y="573.89"/><text fill="#000000" font-family="sans-serif" font-size="14" lengthAdjust="spacing" textLength="106.9824" x="1493.51" y="596.8851">UserRepository</text></g><!--entity ChatRoomRepository--><g id="elem_ChatRoomRepository"><rect fill="#F1F1F1" height="36.2969" rx="3.5" ry="3.5" style="stroke:#181818;stroke-width:0.5;" width="168.2852" x="2300.86" y="573.89"/><text fill="#000000" font-family="sans-serif" font-size="14" lengthAdjust="spacing" textLength="148.2852" x="2310.86" y="596.8851">ChatRoomRepository</text></g><!--entity ChatMessageRepository--><g id="elem_ChatMessageRepository"><rect fill="#F1F1F1" height="36.2969" rx="3.5" ry="3.5" style="stroke:#181818;stroke-width:0.5;" width="189.1484" x="1645.43" y="573.89"/><text fill="#000000" font-family="sans-serif" font-size="14" lengthAdjust="spacing" textLength="169.1484" x="1655.43" y="596.8851">ChatMessageRepository</text></g><!--entity AuthoritiesRepository--><g id="elem_AuthoritiesRepository"><rect fill="#F1F1F1" height="36.2969" rx="3.5" ry="3.5" style="stroke:#181818;stroke-width:0.5;" width="171.3818" x="1869.31" y="573.89"/><text fill="#000000" font-family="sans-serif" font-size="14" lengthAdjust="spacing" textLength="151.3818" x="1879.31" y="596.8851">AuthoritiesRepository</text></g><!--link CardController to CardService--><g id="link_CardController_CardService"><path d="M882.39,77.49 C873.97,117.99 854.2931,212.576 845.8431,253.156 " fill="none" id="CardController-to-CardService" style="stroke:#454645;stroke-width:1;stroke-dasharray:7.0,7.0;"/><polygon fill="#454645" points="844.62,259.03,850.3707,251.0344,845.6393,254.135,842.5387,249.4036,844.62,259.03" style="stroke:#454645;stroke-width:1;"/></g><!--link AuthController to UserService--><g id="link_AuthController_UserService"><path d="M1992.44,77.75 C1978.27,85.53 1961.05,94.44 1945,101.3 C1942.68,102.29 1603.19,215.06 1601,216.3 C1580.66,227.85 1565.0038,241.5585 1551.6538,254.8385 " fill="none" id="AuthController-to-UserService" style="stroke:#454645;stroke-width:1;stroke-dasharray:7.0,7.0;"/><polygon fill="#454645" points="1547.4,259.07,1556.6016,255.5586,1550.9448,255.5438,1550.9597,249.8869,1547.4,259.07" style="stroke:#454645;stroke-width:1;"/></g><!--link AuthController to AuthService--><g id="link_AuthController_AuthService"><path d="M2051.46,77.54 C2112.34,116.89 2245.04,215.59 2186,295.6 C2179.97,303.77 2065.9186,336.6151 1994.3886,356.6051 " fill="none" id="AuthController-to-AuthService" style="stroke:#454645;stroke-width:1;stroke-dasharray:7.0,7.0;"/><polygon fill="#454645" points="1988.61,358.22,1998.3545,359.65,1993.4255,356.8742,1996.2013,351.9453,1988.61,358.22" style="stroke:#454645;stroke-width:1;"/></g><!--link DeckController to DeckService--><g id="link_DeckController_DeckService"><path d="M235.92,77.49 C240.42,117.99 250.8972,212.4867 255.4072,253.0667 " fill="none" id="DeckController-to-DeckService" style="stroke:#454645;stroke-width:1;stroke-dasharray:7.0,7.0;"/><polygon fill="#454645" points="256.07,259.03,259.0514,249.6432,255.5177,254.0606,251.1004,250.5269,256.07,259.03" style="stroke:#454645;stroke-width:1;"/></g><!--link FriendshipController to FriendshipService--><g id="link_FriendshipController_FriendshipService"><path d="M1416.74,77.59 C1399.49,93.21 1373.53,116.76 1351,137.3 C1303.14,180.92 1251.3906,228.3632 1222.5906,254.7932 " fill="none" id="FriendshipController-to-FriendshipService" style="stroke:#454645;stroke-width:1;stroke-dasharray:7.0,7.0;"/><polygon fill="#454645" points="1218.17,258.85,1227.5055,255.7118,1221.8539,255.4693,1222.0964,249.8176,1218.17,258.85" style="stroke:#454645;stroke-width:1;"/></g><!--link FriendshipController to UserService--><g id="link_FriendshipController_UserService"><path d="M1445.73,77.67 C1454.18,93.14 1466.5,116.43 1476,137.3 C1495.6,180.32 1513.0818,226.8604 1522.7318,253.4304 " fill="none" id="FriendshipController-to-UserService" style="stroke:#454645;stroke-width:1;stroke-dasharray:7.0,7.0;"/><polygon fill="#454645" points="1524.78,259.07,1525.4673,249.2452,1523.0731,254.3704,1517.9479,251.9761,1524.78,259.07" style="stroke:#454645;stroke-width:1;"/></g><!--link FightController to PieceService--><g id="link_FightController_PieceService"><path d="M405.02,77.49 C433.11,117.99 499.361,213.5195 527.501,254.0995 " fill="none" id="FightController-to-PieceService" style="stroke:#454645;stroke-width:1;stroke-dasharray:7.0,7.0;"/><polygon fill="#454645" points="530.92,259.03,529.0784,249.3548,528.0708,254.9212,522.5044,253.9136,530.92,259.03" style="stroke:#454645;stroke-width:1;"/></g><!--link GameSessionController to GameSessionService--><g id="link_GameSessionController_GameSessionService"><path d="M1874.23,77.65 C1935.44,105.77 2049.22,161.54 2074,198.3 C2086.18,216.36 2087.7424,236.1362 2086.9724,253.0762 " fill="none" id="GameSessionController-to-GameSessionService" style="stroke:#454645;stroke-width:1;stroke-dasharray:7.0,7.0;"/><polygon fill="#454645" points="2086.7,259.07,2091.1045,250.2609,2086.927,254.0752,2083.1128,249.8977,2086.7,259.07" style="stroke:#454645;stroke-width:1;"/></g><!--link GameSessionController to UserService--><g id="link_GameSessionController_UserService"><path d="M1806.5,77.59 C1761.67,105.39 1672.39,162.12 1601,216.3 C1583.13,229.86 1568.3365,242.5737 1554.5565,254.9337 " fill="none" id="GameSessionController-to-UserService" style="stroke:#454645;stroke-width:1;stroke-dasharray:7.0,7.0;"/><polygon fill="#454645" points="1550.09,258.94,1559.4606,255.9083,1553.8121,255.6014,1554.119,249.9529,1550.09,258.94" style="stroke:#454645;stroke-width:1;"/></g><!--link AchievementController to AchievementService--><g id="link_AchievementController_AchievementService"><path d="M1067.95,77.49 C1056.15,117.99 1028.5679,212.6894 1016.7479,253.2694 " fill="none" id="AchievementController-to-AchievementService" style="stroke:#454645;stroke-width:1;stroke-dasharray:7.0,7.0;"/><polygon fill="#454645" points="1015.07,259.03,1021.4273,251.5077,1016.4683,254.2295,1013.7465,249.2705,1015.07,259.03" style="stroke:#454645;stroke-width:1;"/></g><!--link PieceController to PieceService--><g id="link_PieceController_PieceService"><path d="M552.2,77.49 C550.33,117.99 545.9562,212.4564 544.0862,253.0364 " fill="none" id="PieceController-to-PieceService" style="stroke:#454645;stroke-width:1;stroke-dasharray:7.0,7.0;"/><polygon fill="#454645" points="543.81,259.03,548.2201,250.2237,544.0402,254.0353,540.2285,249.8554,543.81,259.03" style="stroke:#454645;stroke-width:1;"/></g><!--link PieceController to UserService--><g id="link_PieceController_UserService"><path d="M581.63,77.64 C596.7,86.08 615.79,95.58 634,101.3 C988.07,212.42 1122.77,63.63 1461,216.3 C1482.76,226.12 1498.8059,240.5039 1511.8459,254.4739 " fill="none" id="PieceController-to-UserService" style="stroke:#454645;stroke-width:1;stroke-dasharray:7.0,7.0;"/><polygon fill="#454645" points="1515.94,258.86,1512.7229,249.5514,1512.5282,255.2049,1506.8747,255.0102,1515.94,258.86" style="stroke:#454645;stroke-width:1;"/></g><!--link PieceController to SquareService--><g id="link_PieceController_SquareService"><path d="M564.22,77.49 C590.43,117.99 652.1994,213.4133 678.4694,253.9933 " fill="none" id="PieceController-to-SquareService" style="stroke:#454645;stroke-width:1;stroke-dasharray:7.0,7.0;"/><polygon fill="#454645" points="681.73,259.03,680.1969,249.3012,679.0128,254.8327,673.4813,253.6486,681.73,259.03" style="stroke:#454645;stroke-width:1;"/></g><!--link SquareController to SquareService--><g id="link_SquareController_SquareService"><path d="M718.76,77.49 C713.51,117.99 701.2813,212.4998 696.0213,253.0798 " fill="none" id="SquareController-to-SquareService" style="stroke:#454645;stroke-width:1;stroke-dasharray:7.0,7.0;"/><polygon fill="#454645" points="695.25,259.03,700.3737,250.6188,695.8927,254.0715,692.4401,249.5905,695.25,259.03" style="stroke:#454645;stroke-width:1;"/></g><!--link InvitationController to InvitationService--><g id="link_InvitationController_InvitationService"><path d="M1609.56,77.49 C1561.82,117.99 1447.956,214.5692 1400.106,255.1492 " fill="none" id="InvitationController-to-InvitationService" style="stroke:#454645;stroke-width:1;stroke-dasharray:7.0,7.0;"/><polygon fill="#454645" points="1395.53,259.03,1404.9812,256.2595,1399.3433,255.796,1399.8068,250.1582,1395.53,259.03" style="stroke:#454645;stroke-width:1;"/></g><!--link InvitationController to UserService--><g id="link_InvitationController_UserService"><path d="M1622.07,77.49 C1603.53,117.99 1560.0478,212.9946 1541.4678,253.5746 " fill="none" id="InvitationController-to-UserService" style="stroke:#454645;stroke-width:1;stroke-dasharray:7.0,7.0;"/><polygon fill="#454645" points="1538.97,259.03,1546.3536,252.5122,1541.0515,254.4839,1539.0798,249.1818,1538.97,259.03" style="stroke:#454645;stroke-width:1;"/></g><!--link InvitationController to GameSessionService--><g id="link_InvitationController_GameSessionService"><path d="M1670.37,77.75 C1760.22,116.92 1970,208.53 1985,216.3 C2010.36,229.44 2033.0489,243.1432 2052.8789,255.6832 " fill="none" id="InvitationController-to-GameSessionService" style="stroke:#454645;stroke-width:1;stroke-dasharray:7.0,7.0;"/><polygon fill="#454645" points="2057.95,258.89,2052.4812,250.699,2053.7241,256.2176,2048.2054,257.4605,2057.95,258.89" style="stroke:#454645;stroke-width:1;"/></g><!--link UserController to UserService--><g id="link_UserController_UserService"><path d="M1282.64,77.8 C1320.67,106.33 1397.61,164.62 1461,216.3 C1478.26,230.37 1492.9041,242.9494 1506.8041,255.1094 " fill="none" id="UserController-to-UserService" style="stroke:#454645;stroke-width:1;stroke-dasharray:7.0,7.0;"/><polygon fill="#454645" points="1511.32,259.06,1507.1799,250.1236,1507.5568,255.7679,1501.9125,256.1447,1511.32,259.06" style="stroke:#454645;stroke-width:1;"/></g><!--link UserController to AchievementService--><g id="link_UserController_AchievementService"><path d="M1239.04,77.49 C1192.42,117.99 1081.2998,214.5155 1034.5798,255.0955 " fill="none" id="UserController-to-AchievementService" style="stroke:#454645;stroke-width:1;stroke-dasharray:7.0,7.0;"/><polygon fill="#454645" points="1030.05,259.03,1039.4678,256.1481,1033.8249,255.7512,1034.2217,250.1083,1030.05,259.03" style="stroke:#454645;stroke-width:1;"/></g><!--link FightController to FightService--><g id="link_FightController_FightService"><path d="M393.56,77.49 C394.87,117.99 397.9249,212.4532 399.2449,253.0332 " fill="none" id="FightController-to-FightService" style="stroke:#454645;stroke-width:1;stroke-dasharray:7.0,7.0;"/><polygon fill="#454645" points="399.44,259.03,403.1453,249.9047,399.2774,254.0326,395.1495,250.1648,399.44,259.03" style="stroke:#454645;stroke-width:1;"/></g><!--reverse link UserService to AuthService--><g id="link_UserService_AuthService"><path d="M1588.7992,292.6813 C1594.8692,294.1613 1595.16,294.21 1601,295.6 C1700.73,319.29 1817.43,345.92 1883.44,360.88 " fill="none" id="UserService-backto-AuthService" style="stroke:#454645;stroke-width:1;stroke-dasharray:7.0,7.0;"/><polygon fill="#454645" points="1582.97,291.26,1590.7663,297.2781,1587.8277,292.4444,1592.6614,289.5058,1582.97,291.26" style="stroke:#454645;stroke-width:1;"/></g><!--reverse link AuthoritiesService to AuthService--><g id="link_AuthoritiesService_AuthService"><path d="M1903.3791,301.1993 C1911.0891,318.1093 1920.27,338.26 1928.02,355.24 " fill="none" id="AuthoritiesService-backto-AuthService" style="stroke:#454645;stroke-width:1;stroke-dasharray:7.0,7.0;"/><polygon fill="#454645" points="1900.89,295.74,1900.9842,305.5884,1902.9643,300.2894,1908.2633,302.2696,1900.89,295.74" style="stroke:#454645;stroke-width:1;"/></g><!--reverse link GameSessionService to ChatRoomService--><g id="link_GameSessionService_ChatRoomService"><path d="M2087.7143,301.6997 C2089.6843,318.6097 2091.98,338.26 2093.96,355.24 " fill="none" id="GameSessionService-backto-ChatRoomService" style="stroke:#454645;stroke-width:1;stroke-dasharray:7.0,7.0;"/><polygon fill="#454645" points="2087.02,295.74,2084.0883,305.1424,2087.5986,300.7064,2092.0346,304.2167,2087.02,295.74" style="stroke:#454645;stroke-width:1;"/></g><!--link ChatRoomController to ChatRoomService--><g id="link_ChatRoomController_ChatRoomService"><path d="M2410.86,77.49 C2390.24,119.81 2332.07,229.74 2255,295.6 C2223.63,322.4 2186.9211,340.163 2153.8411,353.043 " fill="none" id="ChatRoomController-to-ChatRoomService" style="stroke:#454645;stroke-width:1;stroke-dasharray:7.0,7.0;"/><polygon fill="#454645" points="2148.25,355.22,2158.088,355.682,2152.9093,353.4059,2155.1854,348.2271,2148.25,355.22" style="stroke:#454645;stroke-width:1;"/></g><!--link ChatMessageController to ChatRoomService--><g id="link_ChatMessageController_ChatRoomService"><path d="M2217.26,77.51 C2230.89,118.51 2258.99,223.3 2219,295.6 C2203.44,323.72 2178.3274,340.4767 2151.5574,352.7067 " fill="none" id="ChatMessageController-to-ChatRoomService" style="stroke:#454645;stroke-width:1;stroke-dasharray:7.0,7.0;"/><polygon fill="#454645" points="2146.1,355.2,2155.9483,355.0984,2150.6479,353.1223,2152.624,347.8218,2146.1,355.2" style="stroke:#454645;stroke-width:1;"/></g><!--link ChatMessageController to ChatMessageService--><g id="link_ChatMessageController_ChatMessageService"><path d="M2164.35,77.66 C2060.54,116.67 1818.19,207.94 1801,216.3 C1774.95,228.97 1751.8384,242.9921 1732.0584,255.7821 " fill="none" id="ChatMessageController-to-ChatMessageService" style="stroke:#454645;stroke-width:1;stroke-dasharray:7.0,7.0;"/><polygon fill="#454645" points="1727.02,259.04,1736.7496,257.5121,1731.2187,256.3251,1732.4057,250.7942,1727.02,259.04" style="stroke:#454645;stroke-width:1;"/></g><!--link AchievementService to AchievementRepository--><g id="link_AchievementService_AchievementRepository"><path d="M1006.96,295.7 C997.37,350.22 968.8102,512.5609 959.1302,567.5509 " fill="none" id="AchievementService-to-AchievementRepository" style="stroke:#454645;stroke-width:1;stroke-dasharray:7.0,7.0;"/><polygon fill="#454645" points="958.09,573.46,963.5897,565.2897,958.9568,568.5357,955.7109,563.9028,958.09,573.46" style="stroke:#454645;stroke-width:1;"/></g><!--link ChatMessageService to ChatRoomRepository--><g id="link_ChatMessageService_ChatRoomRepository"><path d="M1717.03,295.98 C1744.65,325.15 1804.21,383.61 1866,415.89 C2036.77,505.13 2106.74,455.36 2284,530.89 C2311.22,542.49 2335.0162,556.9241 2354.8662,570.1441 " fill="none" id="ChatMessageService-to-ChatRoomRepository" style="stroke:#454645;stroke-width:1;stroke-dasharray:7.0,7.0;"/><polygon fill="#454645" points="2359.86,573.47,2354.5865,565.1519,2355.6985,570.6984,2350.152,571.8104,2359.86,573.47" style="stroke:#454645;stroke-width:1;"/></g><!--link ChatMessageService to UserRepository--><g id="link_ChatMessageService_UserRepository"><path d="M1685.17,295.82 C1672.08,310.82 1653.66,333.51 1641,355.6 C1597.12,432.16 1566.0464,527.4767 1553.8864,567.6967 " fill="none" id="ChatMessageService-to-UserRepository" style="stroke:#454645;stroke-width:1;stroke-dasharray:7.0,7.0;"/><polygon fill="#454645" points="1552.15,573.44,1558.5834,565.9827,1553.597,568.654,1550.9258,563.6675,1552.15,573.44" style="stroke:#454645;stroke-width:1;"/></g><!--link ChatMessageService to ChatMessageRepository--><g id="link_ChatMessageService_ChatMessageRepository"><path d="M1689.46,295.96 C1680.25,311.05 1668.08,333.78 1663,355.6 C1647.04,424.12 1636.11,448.88 1663,513.89 C1673.27,538.72 1691.0712,556.1087 1709.1312,569.8987 " fill="none" id="ChatMessageService-to-ChatMessageRepository" style="stroke:#454645;stroke-width:1;stroke-dasharray:7.0,7.0;"/><polygon fill="#454645" points="1713.9,573.54,1709.1744,564.8989,1709.926,570.5056,1704.3193,571.2573,1713.9,573.54" style="stroke:#454645;stroke-width:1;"/></g><!--link InvitationService to InvitationRepository--><g id="link_InvitationService_InvitationRepository"><path d="M1374.61,295.7 C1373.39,350.22 1369.7653,512.4715 1368.5253,567.4615 " fill="none" id="InvitationService-to-InvitationRepository" style="stroke:#454645;stroke-width:1;stroke-dasharray:7.0,7.0;"/><polygon fill="#454645" points="1368.39,573.46,1372.5919,564.5525,1368.5027,568.4613,1364.5939,564.3721,1368.39,573.46" style="stroke:#454645;stroke-width:1;"/></g><!--link InvitationService to FriendshipRepository--><g id="link_InvitationService_FriendshipRepository"><path d="M1363.58,295.7 C1327.47,350.22 1219.3624,513.4672 1182.9524,568.4572 " fill="none" id="InvitationService-to-FriendshipRepository" style="stroke:#454645;stroke-width:1;stroke-dasharray:7.0,7.0;"/><polygon fill="#454645" points="1179.64,573.46,1187.9438,568.1641,1182.4004,569.291,1181.2735,563.7475,1179.64,573.46" style="stroke:#454645;stroke-width:1;"/></g><!--link ChatRoomService to ChatRoomRepository--><g id="link_ChatRoomService_ChatRoomRepository"><path d="M2119.16,392.08 C2173.27,432.58 2302.7064,529.4448 2356.9264,570.0248 " fill="none" id="ChatRoomService-to-ChatRoomRepository" style="stroke:#454645;stroke-width:1;stroke-dasharray:7.0,7.0;"/><polygon fill="#454645" points="2361.73,573.62,2356.9214,565.0248,2357.727,570.624,2352.1278,571.4296,2361.73,573.62" style="stroke:#454645;stroke-width:1;"/></g><!--link FightService to FightRepository--><g id="link_FightService_FightRepository"><path d="M391.83,295.7 C366.02,350.22 288.9271,513.0469 262.8971,568.0369 " fill="none" id="FightService-to-FightRepository" style="stroke:#454645;stroke-width:1;stroke-dasharray:7.0,7.0;"/><polygon fill="#454645" points="260.33,573.46,267.796,567.0367,262.4692,568.9407,260.5652,563.614,260.33,573.46" style="stroke:#454645;stroke-width:1;"/></g><!--link CardService to CardRepository--><g id="link_CardService_CardRepository"><path d="M836.64,295.7 C822.86,350.22 781.8104,512.653 767.9104,567.643 " fill="none" id="CardService-to-CardRepository" style="stroke:#454645;stroke-width:1;stroke-dasharray:7.0,7.0;"/><polygon fill="#454645" points="766.44,573.46,772.5236,565.7147,767.6653,568.6125,764.7676,563.7542,766.44,573.46" style="stroke:#454645;stroke-width:1;"/></g><!--link DeckService to DeckRepository--><g id="link_DeckService_DeckRepository"><path d="M248.56,295.7 C218.74,350.22 129.5794,513.2061 99.4994,568.1961 " fill="none" id="DeckService-to-DeckRepository" style="stroke:#454645;stroke-width:1;stroke-dasharray:7.0,7.0;"/><polygon fill="#454645" points="96.62,573.46,104.4484,567.4837,99.0195,569.0734,97.4298,563.6445,96.62,573.46" style="stroke:#454645;stroke-width:1;"/></g><!--link FriendshipService to FriendshipRepository--><g id="link_FriendshipService_FriendshipRepository"><path d="M1197.29,295.7 C1191.88,350.22 1175.7928,512.4994 1170.3328,567.4894 " fill="none" id="FriendshipService-to-FriendshipRepository" style="stroke:#454645;stroke-width:1;stroke-dasharray:7.0,7.0;"/><polygon fill="#454645" points="1169.74,573.46,1174.6097,564.8993,1170.234,568.4845,1166.6488,564.1088,1169.74,573.46" style="stroke:#454645;stroke-width:1;"/></g><!--link FriendshipService to UserRepository--><g id="link_FriendshipService_UserRepository"><path d="M1218.46,295.92 C1279.43,350.7 1461.9162,514.6207 1523.0062,569.4907 " fill="none" id="FriendshipService-to-UserRepository" style="stroke:#454645;stroke-width:1;stroke-dasharray:7.0,7.0;"/><polygon fill="#454645" points="1527.47,573.5,1523.4472,564.5102,1523.7502,570.1589,1518.1014,570.4619,1527.47,573.5" style="stroke:#454645;stroke-width:1;"/></g><!--link GameSessionService to GameSessionRepository--><g id="link_GameSessionService_GameSessionRepository"><path d="M2006.13,296.08 C1950.43,310.31 1882.83,331.83 1866,355.6 C1850.52,377.47 1852.57,392.7 1866,415.89 C1873.77,429.32 2056.1831,528.9744 2133.2031,570.6544 " fill="none" id="GameSessionService-to-GameSessionRepository" style="stroke:#454645;stroke-width:1;stroke-dasharray:7.0,7.0;"/><polygon fill="#454645" points="2138.48,573.51,2132.4684,565.7086,2134.0826,571.1303,2128.6609,572.7445,2138.48,573.51" style="stroke:#454645;stroke-width:1;"/></g><!--link PieceService to PieceRepository--><g id="link_PieceService_PieceRepository"><path d="M536.1,295.7 C514.3,350.22 449.2478,512.8989 427.2578,567.8889 " fill="none" id="PieceService-to-PieceRepository" style="stroke:#454645;stroke-width:1;stroke-dasharray:7.0,7.0;"/><polygon fill="#454645" points="425.03,573.46,432.0858,566.5886,426.8865,568.8174,424.6577,563.6182,425.03,573.46" style="stroke:#454645;stroke-width:1;"/></g><!--link SquareService to SquareRepository--><g id="link_SquareService_SquareRepository"><path d="M687.37,295.7 C669.58,350.22 616.5409,512.7659 598.6009,567.7559 " fill="none" id="SquareService-to-SquareRepository" style="stroke:#454645;stroke-width:1;stroke-dasharray:7.0,7.0;"/><polygon fill="#454645" points="596.74,573.46,603.3341,566.1444,598.2908,568.7066,595.7286,563.6632,596.74,573.46" style="stroke:#454645;stroke-width:1;"/></g><!--link UserService to UserRepository--><g id="link_UserService_UserRepository"><path d="M1527.82,296.02 C1521.24,335.35 1507.79,433.35 1521,513.89 C1524.48,535.09 1530.7021,552.7734 1537.0421,568.1434 " fill="none" id="UserService-to-UserRepository" style="stroke:#454645;stroke-width:1;stroke-dasharray:7.0,7.0;"/><polygon fill="#454645" points="1539.33,573.69,1539.5958,563.8447,1537.4234,569.0678,1532.2003,566.8953,1539.33,573.69" style="stroke:#454645;stroke-width:1;"/></g><!--link AuthoritiesService to AuthoritiesRepository--><g id="link_AuthoritiesService_AuthoritiesRepository"><path d="M1861.96,295.94 C1841.6,309.34 1816.66,329.87 1805,355.6 C1775.96,419.68 1764.59,456.3 1805,513.89 C1817.76,532.08 1831.88,521.48 1852,530.89 C1878.82,543.45 1902.7431,557.5423 1923.1131,570.3723 " fill="none" id="AuthoritiesService-to-AuthoritiesRepository" style="stroke:#454645;stroke-width:1;stroke-dasharray:7.0,7.0;"/><polygon fill="#454645" points="1928.19,573.57,1922.7064,565.3889,1923.9593,570.9053,1918.4429,572.1581,1928.19,573.57" style="stroke:#454645;stroke-width:1;"/></g><!--SRC=[dPNHYjim44NVzHNgllJDNr02koajXIqi2Vi1gdOQYzYIAoc1KFhlbUKu6Mb6NQXVpxKydZjpzI7sC88ycnzUsIZ2qTX9UJLAxSR9MR1n7oy3I0ywAdiOG0WnANrK1v0FBnv2KgXed9NFwWB-GVuMjpVbLlcthRFHks40Zy1dq4SMF9vYpu8lte1z2xsPMFnLZR27458XB7yDu5dmOa03I_Q_Jihpw57t1iwfRpRonPf3pvDjh-BEkR49lwUVIBrb-JTxDakp4HP_a25Ffs1iEa4-kuFHTqk4J4_fonxysMYeIAwSHxDdF9bDQnntSwtnvhsHl03voWjcOtcIdUNHOYtFLeVQz6hHAk3yeMpkaVCc6WWhnCRj8BYJrt2tZ3gsWya54vs_LF3-tQOa-zgaixNjLsyUDYN8fQOcsz6aYoDDZEQagPad0K7gQ1DU3MKvyWtnPDt7rBMVnXgVed5GElqw19dUy2075QHMamgY343PTPjYzygqIxYR5NYaYM9JR5kPendZDUL2CuleNZQaTJrLiiaiA3QDJUByKMQN6-Ag1rpQBgsWyL7bkIJrKK7zZzmHPMBKLmCZuR8wosX8DAMugAQ8wMfvsP6Z6CmqaZgzAMy7TAJyr7N5NDAq8n9QTvRKyKilp6MB61cvElz3MMMxe8rPHfuF97f2KSBxoYh3_d4UpImoMDMulIjbWrvK_Mlz41wDfKNrbOE2RqswwbP3qRKehd66FrC7LxjoNbfrc9d2QgcG6EV8FLYGe8W050f8WhU6gOTPd3NpoItq5m00]--></g></svg>