<svg xmlns="http://www.w3.org/2000/svg" xmlns:xlink="http://www.w3.org/1999/xlink" contentStyleType="text/css" height="694px" preserveAspectRatio="none" style="width:1879px;height:694px;background:#FFFFFF;" version="1.1" viewBox="0 0 1879 694" width="1879px" zoomAndPan="magnify"><defs/><g><!--cluster Presentation Layer--><g id="cluster_Presentation Layer"><path d="M99.5,6 L248.9385,6 A5.25,5.25 0 0 1 252.4385,9.5 L259.4385,28.2969 L1854.5,28.2969 A3.5,3.5 0 0 1 1858,31.7969 L1858,89.8 A3.5,3.5 0 0 1 1854.5,93.3 L99.5,93.3 A3.5,3.5 0 0 1 96,89.8 L96,9.5 A3.5,3.5 0 0 1 99.5,6 " fill="none" style="stroke:#696969;stroke-width:1.0;"/><line style="stroke:#696969;stroke-width:1.0;" x1="96" x2="259.4385" y1="28.2969" y2="28.2969"/><text fill="#000000" font-family="sans-serif" font-size="14" font-weight="bold" lengthAdjust="spacing" textLength="150.4385" x="100" y="20.9951">Presentation Layer</text></g><!--cluster Business Logic Layer--><g id="cluster_Business Logic Layer"><path d="M139.5,224.3 L303.6973,224.3 A5.25,5.25 0 0 1 307.1973,227.8 L314.1973,246.5969 L1762.5,246.5969 A3.5,3.5 0 0 1 1766,250.0969 L1766,404.39 A3.5,3.5 0 0 1 1762.5,407.89 L139.5,407.89 A3.5,3.5 0 0 1 136,404.39 L136,227.8 A3.5,3.5 0 0 1 139.5,224.3 " fill="none" style="stroke:#696969;stroke-width:1.0;"/><line style="stroke:#696969;stroke-width:1.0;" x1="136" x2="314.1973" y1="246.5969" y2="246.5969"/><text fill="#000000" font-family="sans-serif" font-size="14" font-weight="bold" lengthAdjust="spacing" textLength="165.1973" x="140" y="239.2951">Business Logic Layer</text></g><!--cluster Resource Layer--><g id="cluster_Resource Layer"><path d="M9.5,599.89 L130.1592,599.89 A5.25,5.25 0 0 1 133.6592,603.39 L140.6592,622.1869 L1868.5,622.1869 A3.5,3.5 0 0 1 1872,625.6869 L1872,683.69 A3.5,3.5 0 0 1 1868.5,687.19 L9.5,687.19 A3.5,3.5 0 0 1 6,683.69 L6,603.39 A3.5,3.5 0 0 1 9.5,599.89 " fill="none" style="stroke:#696969;stroke-width:1.0;"/><line style="stroke:#696969;stroke-width:1.0;" x1="6" x2="140.6592" y1="622.1869" y2="622.1869"/><text fill="#000000" font-family="sans-serif" font-size="14" font-weight="bold" lengthAdjust="spacing" textLength="121.6592" x="10" y="614.8851">Resource Layer</text></g><!--entity CardController--><g id="elem_CardController"><rect fill="#F1F1F1" height="36.2969" rx="3.5" ry="3.5" style="stroke:#181818;stroke-width:0.5;" width="122.1699" x="268.92" y="41"/><text fill="#000000" font-family="sans-serif" font-size="14" lengthAdjust="spacing" textLength="102.1699" x="278.92" y="63.9951">CardController</text></g><!--entity DeckController--><g id="elem_DeckController"><rect fill="#F1F1F1" height="36.2969" rx="3.5" ry="3.5" style="stroke:#181818;stroke-width:0.5;" width="124.3711" x="425.81" y="41"/><text fill="#000000" font-family="sans-serif" font-size="14" lengthAdjust="spacing" textLength="104.3711" x="435.81" y="63.9951">DeckController</text></g><!--entity AuthController--><g id="elem_AuthController"><rect fill="#F1F1F1" height="36.2969" rx="3.5" ry="3.5" style="stroke:#181818;stroke-width:0.5;" width="121.9854" x="112.01" y="41"/><text fill="#000000" font-family="sans-serif" font-size="14" lengthAdjust="spacing" textLength="101.9854" x="122.01" y="63.9951">AuthController</text></g><!--entity FriendshipController--><g id="elem_FriendshipController"><rect fill="#F1F1F1" height="36.2969" rx="3.5" ry="3.5" style="stroke:#181818;stroke-width:0.5;" width="162.1875" x="584.91" y="41"/><text fill="#000000" font-family="sans-serif" font-size="14" lengthAdjust="spacing" textLength="142.1875" x="594.91" y="63.9951">FriendshipController</text></g><!--entity GameSessionController--><g id="elem_GameSessionController"><rect fill="#F1F1F1" height="36.2969" rx="3.5" ry="3.5" style="stroke:#181818;stroke-width:0.5;" width="184.2676" x="781.87" y="41"/><text fill="#000000" font-family="sans-serif" font-size="14" lengthAdjust="spacing" textLength="164.2676" x="791.87" y="63.9951">GameSessionController</text></g><!--entity UserController--><g id="elem_UserController"><rect fill="#F1F1F1" height="36.2969" rx="3.5" ry="3.5" style="stroke:#181818;stroke-width:0.5;" width="121.083" x="1001.46" y="41"/><text fill="#000000" font-family="sans-serif" font-size="14" lengthAdjust="spacing" textLength="101.083" x="1011.46" y="63.9951">UserController</text></g><!--entity PieceController--><g id="elem_PieceController"><rect fill="#F1F1F1" height="36.2969" rx="3.5" ry="3.5" style="stroke:#181818;stroke-width:0.5;" width="126.4287" x="1541.79" y="41"/><text fill="#000000" font-family="sans-serif" font-size="14" lengthAdjust="spacing" textLength="106.4287" x="1551.79" y="63.9951">PieceController</text></g><!--entity PlayerController--><g id="elem_PlayerController"><rect fill="#F1F1F1" height="36.2969" rx="3.5" ry="3.5" style="stroke:#181818;stroke-width:0.5;" width="132.7383" x="1373.63" y="41"/><text fill="#000000" font-family="sans-serif" font-size="14" lengthAdjust="spacing" textLength="112.7383" x="1383.63" y="63.9951">PlayerController</text></g><!--entity SquareController--><g id="elem_SquareController"><rect fill="#F1F1F1" height="36.2969" rx="3.5" ry="3.5" style="stroke:#181818;stroke-width:0.5;" width="138.7676" x="1703.62" y="41"/><text fill="#000000" font-family="sans-serif" font-size="14" lengthAdjust="spacing" textLength="118.7676" x="1713.62" y="63.9951">SquareController</text></g><!--entity AchievementController--><g id="elem_AchievementController"><rect fill="#F1F1F1" height="36.2969" rx="3.5" ry="3.5" style="stroke:#181818;stroke-width:0.5;" width="181.335" x="1157.33" y="41"/><text fill="#000000" font-family="sans-serif" font-size="14" lengthAdjust="spacing" textLength="161.335" x="1167.33" y="63.9951">AchievementController</text></g><!--entity CardService--><g id="elem_CardService"><rect fill="#F1F1F1" height="36.2969" rx="3.5" ry="3.5" style="stroke:#181818;stroke-width:0.5;" width="104.7383" x="334.63" y="259.3"/><text fill="#000000" font-family="sans-serif" font-size="14" lengthAdjust="spacing" textLength="84.7383" x="344.63" y="282.2951">CardService</text></g><!--entity DeckService--><g id="elem_DeckService"><rect fill="#F1F1F1" height="36.2969" rx="3.5" ry="3.5" style="stroke:#181818;stroke-width:0.5;" width="106.9395" x="474.53" y="259.3"/><text fill="#000000" font-family="sans-serif" font-size="14" lengthAdjust="spacing" textLength="86.9395" x="484.53" y="282.2951">DeckService</text></g><!--entity AuthService--><g id="elem_AuthService"><rect fill="#F1F1F1" height="36.2969" rx="3.5" ry="3.5" style="stroke:#181818;stroke-width:0.5;" width="104.5537" x="151.72" y="355.6"/><text fill="#000000" font-family="sans-serif" font-size="14" lengthAdjust="spacing" textLength="84.5537" x="161.72" y="378.5951">AuthService</text></g><!--entity FriendshipService--><g id="elem_FriendshipService"><rect fill="#F1F1F1" height="36.2969" rx="3.5" ry="3.5" style="stroke:#181818;stroke-width:0.5;" width="144.7559" x="754.62" y="259.3"/><text fill="#000000" font-family="sans-serif" font-size="14" lengthAdjust="spacing" textLength="124.7559" x="764.62" y="282.2951">FriendshipService</text></g><!--entity AchievementService--><g id="elem_AchievementService"><rect fill="#F1F1F1" height="36.2969" rx="3.5" ry="3.5" style="stroke:#181818;stroke-width:0.5;" width="163.9033" x="1136.05" y="259.3"/><text fill="#000000" font-family="sans-serif" font-size="14" lengthAdjust="spacing" textLength="143.9033" x="1146.05" y="282.2951">AchievementService</text></g><!--entity GameSessionService--><g id="elem_GameSessionService"><rect fill="#F1F1F1" height="36.2969" rx="3.5" ry="3.5" style="stroke:#181818;stroke-width:0.5;" width="166.8359" x="934.58" y="259.3"/><text fill="#000000" font-family="sans-serif" font-size="14" lengthAdjust="spacing" textLength="146.8359" x="944.58" y="282.2951">GameSessionService</text></g><!--entity UserService--><g id="elem_UserService"><rect fill="#F1F1F1" height="36.2969" rx="3.5" ry="3.5" style="stroke:#181818;stroke-width:0.5;" width="103.6514" x="616.17" y="259.3"/><text fill="#000000" font-family="sans-serif" font-size="14" lengthAdjust="spacing" textLength="83.6514" x="626.17" y="282.2951">UserService</text></g><!--entity PieceService--><g id="elem_PieceService"><rect fill="#F1F1F1" height="36.2969" rx="3.5" ry="3.5" style="stroke:#181818;stroke-width:0.5;" width="108.9971" x="1334.5" y="259.3"/><text fill="#000000" font-family="sans-serif" font-size="14" lengthAdjust="spacing" textLength="88.9971" x="1344.5" y="282.2951">PieceService</text></g><!--entity PlayerService--><g id="elem_PlayerService"><rect fill="#F1F1F1" height="36.2969" rx="3.5" ry="3.5" style="stroke:#181818;stroke-width:0.5;" width="115.3066" x="1478.35" y="259.3"/><text fill="#000000" font-family="sans-serif" font-size="14" lengthAdjust="spacing" textLength="95.3066" x="1488.35" y="282.2951">PlayerService</text></g><!--entity SquareService--><g id="elem_SquareService"><rect fill="#F1F1F1" height="36.2969" rx="3.5" ry="3.5" style="stroke:#181818;stroke-width:0.5;" width="121.3359" x="1628.33" y="259.3"/><text fill="#000000" font-family="sans-serif" font-size="14" lengthAdjust="spacing" textLength="101.3359" x="1638.33" y="282.2951">SquareService</text></g><!--entity AuthoritiesService--><g id="elem_AuthoritiesService"><rect fill="#F1F1F1" height="36.2969" rx="3.5" ry="3.5" style="stroke:#181818;stroke-width:0.5;" width="148.0508" x="151.97" y="259.3"/><text fill="#000000" font-family="sans-serif" font-size="14" lengthAdjust="spacing" textLength="128.0508" x="161.97" y="282.2951">AuthoritiesService</text></g><!--entity CardRepository--><g id="elem_CardRepository"><rect fill="#F1F1F1" height="36.2969" rx="3.5" ry="3.5" style="stroke:#181818;stroke-width:0.5;" width="128.0693" x="228.97" y="634.89"/><text fill="#000000" font-family="sans-serif" font-size="14" lengthAdjust="spacing" textLength="108.0693" x="238.97" y="657.8851">CardRepository</text></g><!--entity DeckRepository--><g id="elem_DeckRepository"><rect fill="#F1F1F1" height="36.2969" rx="3.5" ry="3.5" style="stroke:#181818;stroke-width:0.5;" width="130.2705" x="391.86" y="634.89"/><text fill="#000000" font-family="sans-serif" font-size="14" lengthAdjust="spacing" textLength="110.2705" x="401.86" y="657.8851">DeckRepository</text></g><!--entity FriendshipRepository--><g id="elem_FriendshipRepository"><rect fill="#F1F1F1" height="36.2969" rx="3.5" ry="3.5" style="stroke:#181818;stroke-width:0.5;" width="168.0869" x="556.96" y="634.89"/><text fill="#000000" font-family="sans-serif" font-size="14" lengthAdjust="spacing" textLength="148.0869" x="566.96" y="657.8851">FriendshipRepository</text></g><!--entity GameSessionRepository--><g id="elem_GameSessionRepository"><rect fill="#F1F1F1" height="36.2969" rx="3.5" ry="3.5" style="stroke:#181818;stroke-width:0.5;" width="190.167" x="922.92" y="634.89"/><text fill="#000000" font-family="sans-serif" font-size="14" lengthAdjust="spacing" textLength="170.167" x="932.92" y="657.8851">GameSessionRepository</text></g><!--entity PieceRepository--><g id="elem_PieceRepository"><rect fill="#F1F1F1" height="36.2969" rx="3.5" ry="3.5" style="stroke:#181818;stroke-width:0.5;" width="132.3281" x="1370.84" y="634.89"/><text fill="#000000" font-family="sans-serif" font-size="14" lengthAdjust="spacing" textLength="112.3281" x="1380.84" y="657.8851">PieceRepository</text></g><!--entity PlayerRepository--><g id="elem_PlayerRepository"><rect fill="#F1F1F1" height="36.2969" rx="3.5" ry="3.5" style="stroke:#181818;stroke-width:0.5;" width="138.6377" x="1537.68" y="634.89"/><text fill="#000000" font-family="sans-serif" font-size="14" lengthAdjust="spacing" textLength="118.6377" x="1547.68" y="657.8851">PlayerRepository</text></g><!--entity SquareRepository--><g id="elem_SquareRepository"><rect fill="#F1F1F1" height="36.2969" rx="3.5" ry="3.5" style="stroke:#181818;stroke-width:0.5;" width="144.667" x="1711.67" y="634.89"/><text fill="#000000" font-family="sans-serif" font-size="14" lengthAdjust="spacing" textLength="124.667" x="1721.67" y="657.8851">SquareRepository</text></g><!--entity AchievementRepository--><g id="elem_AchievementRepository"><rect fill="#F1F1F1" height="36.2969" rx="3.5" ry="3.5" style="stroke:#181818;stroke-width:0.5;" width="187.2344" x="1148.38" y="634.89"/><text fill="#000000" font-family="sans-serif" font-size="14" lengthAdjust="spacing" textLength="167.2344" x="1158.38" y="657.8851">AchievementRepository</text></g><!--entity UserRepository--><g id="elem_UserRepository"><rect fill="#F1F1F1" height="36.2969" rx="3.5" ry="3.5" style="stroke:#181818;stroke-width:0.5;" width="126.9824" x="760.51" y="634.89"/><text fill="#000000" font-family="sans-serif" font-size="14" lengthAdjust="spacing" textLength="106.9824" x="770.51" y="657.8851">UserRepository</text></g><!--entity AuthoritiesRepository--><g id="elem_AuthoritiesRepository"><rect fill="#F1F1F1" height="36.2969" rx="3.5" ry="3.5" style="stroke:#181818;stroke-width:0.5;" width="171.3818" x="22.31" y="634.89"/><text fill="#000000" font-family="sans-serif" font-size="14" lengthAdjust="spacing" textLength="151.3818" x="32.31" y="657.8851">AuthoritiesRepository</text></g><!--link CardController to CardService--><g id="link_CardController_CardService"><path d="M334.57,77.49 C345.24,117.99 370.1916,212.6479 380.8816,253.2279 " fill="none" id="CardController-to-CardService" style="stroke:#454645;stroke-width:1.0;stroke-dasharray:7.0,7.0;"/><polygon fill="#454645" points="382.41,259.03,383.9854,249.308,381.1363,254.195,376.2493,251.3459,382.41,259.03" style="stroke:#454645;stroke-width:1.0;"/></g><!--link AuthController to UserService--><g id="link_AuthController_UserService"><path d="M203.55,77.78 C217.72,85.56 234.94,94.47 251,101.3 C400.89,165.08 457.48,135.63 599,216.3 C619.16,227.79 634.5564,241.4686 647.6764,254.7686 " fill="none" id="AuthController-to-UserService" style="stroke:#454645;stroke-width:1.0;stroke-dasharray:7.0,7.0;"/><polygon fill="#454645" points="651.89,259.04,648.4172,249.8237,648.3786,255.4805,642.7219,255.4419,651.89,259.04" style="stroke:#454645;stroke-width:1.0;"/></g><!--link AuthController to AuthService--><g id="link_AuthController_AuthService"><path d="M164.08,77.62 C144.95,117.57 104.08,218.1 134,295.6 C143.38,319.89 159.786,337.3869 176.336,351.4369 " fill="none" id="AuthController-to-AuthService" style="stroke:#454645;stroke-width:1.0;stroke-dasharray:7.0,7.0;"/><polygon fill="#454645" points="180.91,355.32,176.6377,346.446,177.0983,352.0841,171.4602,352.5447,180.91,355.32" style="stroke:#454645;stroke-width:1.0;"/></g><!--link DeckController to DeckService--><g id="link_DeckController_DeckService"><path d="M491.21,77.49 C498.7,117.99 516.1781,212.5502 523.6881,253.1302 " fill="none" id="DeckController-to-DeckService" style="stroke:#454645;stroke-width:1.0;stroke-dasharray:7.0,7.0;"/><polygon fill="#454645" points="524.78,259.03,527.0754,249.4524,523.8701,254.1135,519.209,250.9082,524.78,259.03" style="stroke:#454645;stroke-width:1.0;"/></g><!--link FriendshipController to FriendshipService--><g id="link_FriendshipController_FriendshipService"><path d="M678.9,77.49 C709.05,117.99 780.2471,213.6372 810.4571,254.2172 " fill="none" id="FriendshipController-to-FriendshipService" style="stroke:#454645;stroke-width:1.0;stroke-dasharray:7.0,7.0;"/><polygon fill="#454645" points="814.04,259.03,811.8742,249.4222,811.0543,255.0194,805.4571,254.1994,814.04,259.03" style="stroke:#454645;stroke-width:1.0;"/></g><!--link FriendshipController to UserService--><g id="link_FriendshipController_UserService"><path d="M666.16,77.49 C666.53,117.99 667.4038,212.4503 667.7838,253.0303 " fill="none" id="FriendshipController-to-UserService" style="stroke:#454645;stroke-width:1.0;stroke-dasharray:7.0,7.0;"/><polygon fill="#454645" points="667.84,259.03,671.7556,249.9929,667.7932,254.0302,663.7559,250.0678,667.84,259.03" style="stroke:#454645;stroke-width:1.0;"/></g><!--link GameSessionController to GameSessionService--><g id="link_GameSessionController_GameSessionService"><path d="M885.54,77.49 C912.5,117.99 976.0655,213.4552 1003.0755,254.0352 " fill="none" id="GameSessionController-to-GameSessionService" style="stroke:#454645;stroke-width:1.0;stroke-dasharray:7.0,7.0;"/><polygon fill="#454645" points="1006.4,259.03,1004.7431,249.3215,1003.6296,254.8677,998.0834,253.7542,1006.4,259.03" style="stroke:#454645;stroke-width:1.0;"/></g><!--link GameSessionController to UserService--><g id="link_GameSessionController_UserService"><path d="M857.49,77.49 C818.92,117.99 727.3781,214.1053 688.7281,254.6853 " fill="none" id="GameSessionController-to-UserService" style="stroke:#454645;stroke-width:1.0;stroke-dasharray:7.0,7.0;"/><polygon fill="#454645" points="684.59,259.03,693.6936,255.2717,688.0384,255.4094,687.9006,249.7542,684.59,259.03" style="stroke:#454645;stroke-width:1.0;"/></g><!--link AchievementController to AchievementService--><g id="link_AchievementController_AchievementService"><path d="M1245.6,77.49 C1239.98,117.99 1226.8631,212.5067 1221.2431,253.0867 " fill="none" id="AchievementController-to-AchievementService" style="stroke:#454645;stroke-width:1.0;stroke-dasharray:7.0,7.0;"/><polygon fill="#454645" points="1220.42,259.03,1225.6168,250.6638,1221.1059,254.0773,1217.6925,249.5664,1220.42,259.03" style="stroke:#454645;stroke-width:1.0;"/></g><!--link PieceController to PieceService--><g id="link_PieceController_PieceService"><path d="M1587.69,77.49 C1547.24,117.99 1451.16,214.2047 1410.63,254.7847 " fill="none" id="PieceController-to-PieceService" style="stroke:#454645;stroke-width:1.0;stroke-dasharray:7.0,7.0;"/><polygon fill="#454645" points="1406.39,259.03,1415.5802,255.4888,1409.9234,255.4923,1409.9199,249.8354,1406.39,259.03" style="stroke:#454645;stroke-width:1.0;"/></g><!--link PieceController to PlayerService--><g id="link_PieceController_PlayerService"><path d="M1599.47,77.49 C1586.55,117.99 1556.3228,212.7336 1543.3828,253.3136 " fill="none" id="PieceController-to-PlayerService" style="stroke:#454645;stroke-width:1.0;stroke-dasharray:7.0,7.0;"/><polygon fill="#454645" points="1541.56,259.03,1548.1052,251.6706,1543.079,254.2663,1540.4833,249.2402,1541.56,259.03" style="stroke:#454645;stroke-width:1.0;"/></g><!--link PieceController to UserService--><g id="link_PieceController_UserService"><path d="M1576.36,77.59 C1561.28,86.01 1542.19,95.52 1524,101.3 C1439.77,128.05 817.29,179.38 737,216.3 C715.49,226.19 699.7032,240.5352 686.8732,254.4752 " fill="none" id="PieceController-to-UserService" style="stroke:#454645;stroke-width:1.0;stroke-dasharray:7.0,7.0;"/><polygon fill="#454645" points="682.81,258.89,691.848,254.9767,686.196,255.211,685.9617,249.559,682.81,258.89" style="stroke:#454645;stroke-width:1.0;"/></g><!--link PieceController to SquareService--><g id="link_PieceController_SquareService"><path d="M1611.73,77.49 C1627.46,117.99 1664.3079,212.857 1680.0679,253.437 " fill="none" id="PieceController-to-SquareService" style="stroke:#454645;stroke-width:1.0;stroke-dasharray:7.0,7.0;"/><polygon fill="#454645" points="1682.24,259.03,1682.7104,249.1924,1680.4299,254.3692,1675.2531,252.0886,1682.24,259.03" style="stroke:#454645;stroke-width:1.0;"/></g><!--link PlayerController to PlayerService--><g id="link_PlayerController_PlayerService"><path d="M1447.69,77.49 C1465.67,117.99 1507.8261,212.9658 1525.8361,253.5458 " fill="none" id="PlayerController-to-PlayerService" style="stroke:#454645;stroke-width:1.0;stroke-dasharray:7.0,7.0;"/><polygon fill="#454645" points="1528.27,259.03,1528.2752,249.1811,1526.2417,254.4599,1520.963,252.4264,1528.27,259.03" style="stroke:#454645;stroke-width:1.0;"/></g><!--link PlayerController to GameSessionService--><g id="link_PlayerController_GameSessionService"><path d="M1404.46,77.6 C1389.5,84.93 1371.91,93.54 1356,101.3 C1250.76,152.61 1222.06,160.74 1119,216.3 C1093.85,229.86 1071.1089,243.4337 1051.0389,255.7937 " fill="none" id="PlayerController-to-GameSessionService" style="stroke:#454645;stroke-width:1.0;stroke-dasharray:7.0,7.0;"/><polygon fill="#454645" points="1045.93,258.94,1055.6909,257.6265,1050.1874,256.3181,1051.4958,250.8146,1045.93,258.94" style="stroke:#454645;stroke-width:1.0;"/></g><!--link SquareController to SquareService--><g id="link_SquareController_SquareService"><path d="M1766.27,77.49 C1750.54,117.99 1713.6921,212.857 1697.9321,253.437 " fill="none" id="SquareController-to-SquareService" style="stroke:#454645;stroke-width:1.0;stroke-dasharray:7.0,7.0;"/><polygon fill="#454645" points="1695.76,259.03,1702.7469,252.0886,1697.5701,254.3692,1695.2896,249.1924,1695.76,259.03" style="stroke:#454645;stroke-width:1.0;"/></g><!--link UserController to UserService--><g id="link_UserController_UserService"><path d="M1029.55,77.73 C1015.61,85.16 999.09,93.81 984,101.3 C929.76,128.21 787.77,183.3 737,216.3 C717.95,228.68 702.9649,241.8309 689.6449,254.7009 " fill="none" id="UserController-to-UserService" style="stroke:#454645;stroke-width:1.0;stroke-dasharray:7.0,7.0;"/><polygon fill="#454645" points="685.33,258.87,694.5818,255.4929,688.9258,255.3957,689.0229,249.7397,685.33,258.87" style="stroke:#454645;stroke-width:1.0;"/></g><!--link UserController to AchievementService--><g id="link_UserController_AchievementService"><path d="M1074.5,77.49 C1103.71,117.99 1172.66,213.5838 1201.93,254.1638 " fill="none" id="UserController-to-AchievementService" style="stroke:#454645;stroke-width:1.0;stroke-dasharray:7.0,7.0;"/><polygon fill="#454645" points="1205.44,259.03,1203.4192,249.3907,1202.515,254.9748,1196.9309,254.0706,1205.44,259.03" style="stroke:#454645;stroke-width:1.0;"/></g><!--reverse link UserService to AuthService--><g id="link_UserService_AuthService"><path d="M609.8631,293.1293 C604.2331,294.4693 604.42,294.39 599,295.6 C476.9,322.68 332.43,349.6 256.57,363.35 " fill="none" id="UserService-backto-AuthService" style="stroke:#454645;stroke-width:1.0;stroke-dasharray:7.0,7.0;"/><polygon fill="#454645" points="615.7,291.74,606.0184,289.9326,610.8359,292.8977,607.8707,297.7152,615.7,291.74" style="stroke:#454645;stroke-width:1.0;"/></g><!--reverse link AuthoritiesService to AuthService--><g id="link_AuthoritiesService_AuthService"><path d="M220.5985,301.5835 C216.6585,318.4935 212.05,338.26 208.08,355.24 " fill="none" id="AuthoritiesService-backto-AuthService" style="stroke:#454645;stroke-width:1.0;stroke-dasharray:7.0,7.0;"/><polygon fill="#454645" points="221.96,295.74,216.0221,303.5975,220.8254,300.6096,223.8134,305.4129,221.96,295.74" style="stroke:#454645;stroke-width:1.0;"/></g><!--link AchievementService to AchievementRepository--><g id="link_AchievementService_AchievementRepository"><path d="M1219.98,295.65 C1223.39,326.78 1230,394.54 1230,451.89 C1230,451.89 1230,451.89 1230,513.89 C1230,557.47 1235.2021,602.5333 1238.7121,628.6933 " fill="none" id="AchievementService-to-AchievementRepository" style="stroke:#454645;stroke-width:1.0;stroke-dasharray:7.0,7.0;"/><polygon fill="#454645" points="1239.51,634.64,1242.2776,625.188,1238.8451,629.6844,1234.3487,626.2519,1239.51,634.64" style="stroke:#454645;stroke-width:1.0;"/></g><!--link CardService to CardRepository--><g id="link_CardService_CardRepository"><path d="M386.34,295.68 C385.2,326.84 383,394.67 383,451.89 C383,451.89 383,451.89 383,513.89 C383,564.27 344.9074,606.6525 318.3174,630.7325 " fill="none" id="CardService-to-CardRepository" style="stroke:#454645;stroke-width:1.0;stroke-dasharray:7.0,7.0;"/><polygon fill="#454645" points="313.87,634.76,323.2261,631.6836,317.5761,631.4037,317.856,625.7538,313.87,634.76" style="stroke:#454645;stroke-width:1.0;"/></g><!--link DeckService to DeckRepository--><g id="link_DeckService_DeckRepository"><path d="M521.89,295.93 C511.62,326.93 492,393.77 492,451.89 C492,451.89 492,451.89 492,513.89 C492,558.43 476.9142,603.0535 466.6342,628.9435 " fill="none" id="DeckService-to-DeckRepository" style="stroke:#454645;stroke-width:1.0;stroke-dasharray:7.0,7.0;"/><polygon fill="#454645" points="464.42,634.52,471.459,627.6314,466.2652,629.8729,464.0237,624.6791,464.42,634.52" style="stroke:#454645;stroke-width:1.0;"/></g><!--link FriendshipService to FriendshipRepository--><g id="link_FriendshipService_FriendshipRepository"><path d="M787.5,295.89 C735.61,321.81 651,375.75 651,451.89 C651,451.89 651,451.89 651,513.89 C651,557.42 646.6678,602.4973 643.7378,628.6573 " fill="none" id="FriendshipService-to-FriendshipRepository" style="stroke:#454645;stroke-width:1.0;stroke-dasharray:7.0,7.0;"/><polygon fill="#454645" points="643.07,634.62,648.0469,626.1212,643.6265,629.6511,640.0966,625.2307,643.07,634.62" style="stroke:#454645;stroke-width:1.0;"/></g><!--link FriendshipService to UserRepository--><g id="link_FriendshipService_UserRepository"><path d="M826.67,295.68 C826.1,326.85 825,394.68 825,451.89 C825,451.89 825,451.89 825,513.89 C825,557.31 824.5664,602.3904 824.2764,628.6004 " fill="none" id="FriendshipService-to-UserRepository" style="stroke:#454645;stroke-width:1.0;stroke-dasharray:7.0,7.0;"/><polygon fill="#454645" points="824.21,634.6,828.3093,625.6448,824.2653,629.6003,820.3098,625.5563,824.21,634.6" style="stroke:#454645;stroke-width:1.0;"/></g><!--link GameSessionService to GameSessionRepository--><g id="link_GameSessionService_GameSessionRepository"><path d="M1018,295.68 C1018,326.85 1018,394.68 1018,451.89 C1018,451.89 1018,451.89 1018,513.89 C1018,557.3 1018,602.39 1018,628.6 " fill="none" id="GameSessionService-to-GameSessionRepository" style="stroke:#454645;stroke-width:1.0;stroke-dasharray:7.0,7.0;"/><polygon fill="#454645" points="1018,634.6,1022,625.6,1018,629.6,1014,625.6,1018,634.6" style="stroke:#454645;stroke-width:1.0;"/></g><!--link PieceService to PieceRepository--><g id="link_PieceService_PieceRepository"><path d="M1393.07,296.06 C1399.92,327.28 1413,394.44 1413,451.89 C1413,451.89 1413,451.89 1413,513.89 C1413,557.95 1423.4334,602.9781 1430.4634,628.9681 " fill="none" id="PieceService-to-PieceRepository" style="stroke:#454645;stroke-width:1.0;stroke-dasharray:7.0,7.0;"/><polygon fill="#454645" points="1432.03,634.76,1433.5413,625.0278,1430.7245,629.9334,1425.8188,627.1166,1432.03,634.76" style="stroke:#454645;stroke-width:1.0;"/></g><!--link PlayerService to PlayerRepository--><g id="link_PlayerService_PlayerRepository"><path d="M1541.94,295.94 C1551.92,326.96 1571,393.83 1571,451.89 C1571,451.89 1571,451.89 1571,513.89 C1571,558.51 1586.5299,603.126 1597.0999,628.986 " fill="none" id="PlayerService-to-PlayerRepository" style="stroke:#454645;stroke-width:1.0;stroke-dasharray:7.0,7.0;"/><polygon fill="#454645" points="1599.37,634.54,1599.6675,624.6956,1597.4782,629.9117,1592.2622,627.7225,1599.37,634.54" style="stroke:#454645;stroke-width:1.0;"/></g><!--link SquareService to SquareRepository--><g id="link_SquareService_SquareRepository"><path d="M1696.97,295.75 C1710.38,326.49 1736,392.93 1736,451.89 C1736,451.89 1736,451.89 1736,513.89 C1736,559.34 1756.5755,603.5244 1770.6855,629.1444 " fill="none" id="SquareService-to-SquareRepository" style="stroke:#454645;stroke-width:1.0;stroke-dasharray:7.0,7.0;"/><polygon fill="#454645" points="1773.58,634.4,1772.742,624.5869,1771.1679,630.0203,1765.7345,628.4462,1773.58,634.4" style="stroke:#454645;stroke-width:1.0;"/></g><!--link UserService to UserRepository--><g id="link_UserService_UserRepository"><path d="M679.5,295.84 C698.41,326.17 734,391.32 734,451.89 C734,451.89 734,451.89 734,513.89 C734,564.27 772.0926,606.6525 798.6826,630.7325 " fill="none" id="UserService-to-UserRepository" style="stroke:#454645;stroke-width:1.0;stroke-dasharray:7.0,7.0;"/><polygon fill="#454645" points="803.13,634.76,799.144,625.7538,799.4239,631.4037,793.7739,631.6836,803.13,634.76" style="stroke:#454645;stroke-width:1.0;"/></g><!--link AuthoritiesService to AuthoritiesRepository--><g id="link_AuthoritiesService_AuthoritiesRepository"><path d="M240.84,295.85 C264.71,325.69 309,389.47 309,451.89 C309,451.89 309,451.89 309,513.89 C309,534.27 200.5522,599.1305 144.1722,631.5305 " fill="none" id="AuthoritiesService-to-AuthoritiesRepository" style="stroke:#454645;stroke-width:1.0;stroke-dasharray:7.0,7.0;"/><polygon fill="#454645" points="138.97,634.52,148.7663,633.5038,143.3051,632.0287,144.7802,626.5676,138.97,634.52" style="stroke:#454645;stroke-width:1.0;"/></g><!--SRC=[XPH1JiCm44NtEONfXbrEW2gL8jXqKJNY0COT6gkf7SPkfGfnTvoKaB4zXcpVj-FvysVkV0id41VzXjBuoXsrwINAar3sr5i3nZV-se50K5wQGmTLLVLI7UK1n6ABu892UcsDsCWhu49yLhydnLhYVcsDHzjrW0GyWJgoO7NsBGkUKOFPkrRtB7wH9sZ0kV0GbhywG1PiDIZWIJSKnABcuooHFxLIhOPBiDHumgilujhZsMaJtYeszg3Lx9i8N-nT0tZH2X8ocCUJmJsUpFOLJixFvWN4O5umECoJqU826ZtcsStaYSL5MjHUWviWTNS7pfvHmL- -xg2tJdkBLyRQ8fmzB4g8IqNDQ4UPZeuKySsK8YPjB6g6HX786ajuyFO- -FAkZSQm1JgfGd7WH3Y183hfX9AzT5KywwAkbr64uy4Ek1uKD3IPOXdbELuP8wQ3mEs7KPGdlo1DtyEkbF5APXOAugH2RZVS2it7BrbCeooQ95OGpLEkI6laxeZdBjs2t6yu2UDHkZMPlyLhMgJFPJ3Z73aX7kewIb6-F399bLyfwkHNP3v8oATK9ok6nFIc-8akaMGXJQBxhpGPwjpzj2b4J5CrnumAQBj908WaQYDfB97GjZ1FPZephO1iANq3]--></g></svg>